<?xml version="1.0" encoding="UTF-8"?>
<svg id="Camada_2" data-name="Camada 2" xmlns="http://www.w3.org/2000/svg" viewBox="0 0 1624.23 409.74">
  <defs>
    <style>
      .cls-1 {
        fill-rule: evenodd;
      }

      .cls-1, .cls-2 {
        fill: #1d1d1b;
        stroke-width: 0px;
      }
    </style>
  </defs>
  <g id="Camada_1-2" data-name="Camada 1">
    <g>
      <path class="cls-2" d="M446.05,85.28c-5.76,0-11.25-1.09-16.5-3.3-5.25-2.2-9.82-5.24-13.71-9.14-3.89-3.89-6.94-8.38-9.14-13.45-2.2-5.08-3.3-10.66-3.3-16.75s1.09-11.67,3.3-16.75c2.2-5.08,5.24-9.56,9.14-13.45,3.89-3.89,8.46-6.93,13.71-9.14,5.24-2.2,10.74-3.3,16.5-3.3,11.84,0,21.99,4.15,30.46,12.44,8.46,8.3,12.69,18.36,12.69,30.2s-4.24,21.92-12.69,30.2c-8.46,8.3-18.62,12.44-30.46,12.44ZM413.05,367.51V118.78h66.5v248.73h-66.5Z"/>
      <path class="cls-2" d="M579.04,151.27h4.06c7.78-12.52,18.28-22.41,31.47-29.7,13.2-7.27,28.25-10.91,45.18-10.91,15.56,0,29.27,2.54,41.12,7.62,11.84,5.08,21.57,12.27,29.19,21.57,7.62,9.31,13.37,20.48,17.26,33.5,3.89,13.03,5.84,27.5,5.84,43.4v150.76h-66.5v-142.64c0-17.93-3.98-31.22-11.93-39.85-7.96-8.63-19.54-12.94-34.77-12.94-9.14,0-17.18,1.95-24.11,5.84-6.94,3.89-12.87,9.14-17.77,15.74-4.91,6.6-8.63,14.39-11.17,23.35-2.54,8.97-3.81,18.53-3.81,28.68v121.83h-66.5V118.78h62.44v32.49Z"/>
      <path class="cls-2" d="M798.84,175.63h-43.66v-56.85h43.66V42.64h66.5v76.14h60.91v56.85h-60.91v99.39c0,5.93.59,11.43,1.78,16.48,1.18,5.06,3.47,9.33,6.85,12.82,4.73,5.58,11.5,8.37,20.3,8.37,5.75,0,10.32-.59,13.71-1.78,3.38-1.18,6.6-2.79,9.64-4.82l18.78,58.38c-7.79,3.72-16.16,6.51-25.13,8.38-8.97,1.86-18.87,2.79-29.7,2.79-12.52,0-23.78-1.99-33.76-5.96-9.99-3.97-18.36-9.41-25.13-16.32-15.91-15.55-23.86-37.65-23.86-66.32v-111.4Z"/>
      <path class="cls-2" d="M1184.11,307.62c-11.51,20.3-26.99,36.72-46.45,49.24-19.46,12.52-43.23,18.78-71.32,18.78-18.96,0-36.47-3.3-52.54-9.9-16.08-6.6-30.04-15.82-41.88-27.67-11.85-11.84-21.07-25.8-27.67-41.88-6.6-16.07-9.9-33.76-9.9-53.05,0-17.93,3.21-34.94,9.64-51.02,6.42-16.07,15.39-30.12,26.9-42.13,11.5-12.01,25.13-21.57,40.86-28.68,15.74-7.11,33.07-10.66,52.03-10.66,19.96,0,37.73,3.3,53.3,9.9,15.56,6.6,28.59,15.74,39.09,27.41,10.49,11.67,18.44,25.47,23.86,41.37,5.41,15.91,8.12,33.17,8.12,51.78v6.09c-.34,2.03-.51,3.89-.51,5.58-.34,1.7-.51,3.55-.51,5.58h-187.31c1.35,10.15,4.14,18.87,8.38,26.14,4.23,7.28,9.47,13.37,15.74,18.27,6.26,4.91,13.11,8.46,20.56,10.66,7.44,2.21,15.05,3.3,22.84,3.3,15.23,0,27.83-3.47,37.82-10.41,9.98-6.93,17.85-15.65,23.61-26.14l55.33,27.41ZM1123.71,211.17c-.34-4.39-1.78-9.3-4.32-14.72-2.54-5.41-6.27-10.48-11.17-15.23-4.91-4.73-11-8.63-18.28-11.67-7.28-3.05-15.99-4.57-26.14-4.57-14.21,0-26.74,4.06-37.56,12.18-10.83,8.12-18.45,19.46-22.84,34.01h120.31Z"/>
      <path class="cls-2" d="M1206.96,367.51V4.06h66.5v363.45h-66.5Z"/>
      <path class="cls-2" d="M1343.5,85.28c-5.76,0-11.25-1.09-16.5-3.3-5.25-2.2-9.82-5.24-13.71-9.14-3.89-3.89-6.94-8.38-9.14-13.45-2.21-5.08-3.3-10.66-3.3-16.75s1.09-11.67,3.3-16.75c2.2-5.08,5.24-9.56,9.14-13.45,3.89-3.89,8.46-6.93,13.71-9.14,5.24-2.2,10.74-3.3,16.5-3.3,11.84,0,21.99,4.15,30.46,12.44,8.46,8.3,12.69,18.36,12.69,30.2s-4.24,21.92-12.69,30.2c-8.46,8.3-18.62,12.44-30.46,12.44ZM1310.51,367.51V118.78h66.5v248.73h-66.5Z"/>
    </g>
    <g>
      <path class="cls-2" d="M1401.11,362.58v-156.32h55.02c7.42,0,14.37,1.2,20.85,3.6,6.47,2.4,12.12,5.79,16.92,10.15,4.8,4.37,8.59,9.57,11.35,15.61,2.76,6.04,4.15,12.7,4.15,19.98s-1.38,14.16-4.15,20.19c-2.77,6.04-6.55,11.24-11.35,15.61-4.8,4.37-10.45,7.75-16.92,10.15-6.48,2.4-13.43,3.6-20.85,3.6h-25.54v57.42h-29.47ZM1456.56,277.22c7.71,0,13.54-2.18,17.47-6.55,3.93-4.37,5.89-9.39,5.89-15.06,0-2.76-.47-5.46-1.42-8.08-.95-2.62-2.4-4.91-4.37-6.88s-4.4-3.53-7.31-4.69c-2.91-1.16-6.33-1.75-10.26-1.75h-25.98v43.01h25.98Z"/>
      <path class="cls-2" d="M1550.22,357.34l-44.97-101.74h32.53l27.07,64.84h1.53l25.98-64.84h31.87l-67.02,154.13h-30.78l23.8-52.4Z"/>
    </g>
    <path class="cls-1" d="M192.19,179.82c.19,5.04,2.56,6.41.36,12.51-1.73,4.82-3.47,4.91-7.11,8.04l15.93,54.46c1.36,4.56,2.71,11.95,6.91,3.97l30.25-52.08c1.66-3.87-5.77-10.17,1.83-16.67,2.12-1.82,3.06-1.41,4.84-2.81.4-5.91,6.23-63.39,5.47-65.16-.33-.78.9-.78-1.31-1.12-1.57-.24-2.98,2.04-4.79,3.9-1.97,2.02-4.05,4.2-5.9,6.33l-46.49,48.63ZM184.51,339.75c2,2.53,3.04,1.95,4.32,6.08l72.18-8.56c1.9-3.13,1.33-8.15,10.27-10.38l2.41-26.89c-5.55-2.65-6.23-5.92-8.42-12.65l-52.41-10.72c-1.93,2.23-3.47,4.26-6.72,5.09-5.95,1.52-2.61.88-4.55,5.84l-17.09,52.2ZM141.07,287.55c6.84.81,11.58,2.64,11.85,9.88.39,10.45-8.27-.31,11.65,27.62,2.61,3.66,7.02,9.79,8.91,13.69l5.65-.59,18.93-57.44c-11.39-13.54,4.91-5.52-13.57-17.31l-60-38.28c-7-4.39-20.23-14.92-14.9-4.42l20.99,44.59c3.4,7.3,7.44,15.02,10.51,22.27ZM83.82,295.44l-2.66,43.67c3.23,3.24,6.54,2.5,7.97,9.31,1.18,5.65-1.54,9.44-4.59,11.88.19,3.7,6.13,16.71,7.67,21.06,2.34,6.61,4.87,15.23,7.98,21.2l36.56-96.22c-.98-1.94-1.48-1.83-2.49-3.66-3.39-6.11,2.53-4.38-20.18-10.05-5.01-1.25-14.74-4.66-19.47-4.85-2.34,3.94-4.82,6.6-10.8,7.64ZM285.8,274.26c12.8,5.23,10.91,26.84-6.7,27.05l-2.46,25.59c.21.13.43.1.5.33l6.32,4.9,56.35-18.78c-1.12-7.69.78-10.42,4.77-14.06-.82-2.98-6.92-12.07-8.76-15.07l-26.79-44.49-8.24-.64-15,35.17ZM69.96,273.86c1.32-2.81,2.16-2.59,3.89-4.76l-37.17-87.89-4.35-.18c-2.27,2.44-22.89,45.76-27.86,55.72-4.74,9.5-1.86,4.32-.03,12,.76,3.2-.42,2.12,2.55,3.38,2.61,1.11,6.25,2.12,9.04,3.07,8.58,2.92,49.07,17.8,53.94,18.67ZM257.31,196.13c-1.63,6.34-.69,5.59-4.62,10.02l22.84,66.99,5.02-.54,15.64-36.82c-1.81-2.7-3.25-3.55-4-7.47-.64-3.32-.18-6.4,1.12-9.12,3.88-8.12,11.42-6.96,13.24-8.55,1.44-1.76,1.96-3.75,2.87-6.21.85-2.32,2.04-4.27,3.01-6.59,1.85-4.45,3.75-8.44,5.58-13.1,7.65-19.47,8-16.53-7.43-10.57-14.09,5.44-42.76,18.38-53.26,21.95ZM256.32,121.96c-.74,11.82-6.15,59.96-5.59,66.21,2.12,1.36,2.33,1.58,3.76,3.14,4.18-1.01,12.16-4.76,16.46-6.64l32.69-13.54c5.67-2.09,10.94-5.36,16.3-6.93l.57-4.84-54.92-38.15c-4.52-3.21-3.47-.11-9.27.76ZM111.78,206.58c-.58,1.71-.38,1.55-.15,3.84,6.2,4.62,14.39,9.06,21.07,13.58,13.79,9.33,29.02,18.06,43.08,27.54,3.51,2.37,7.01,4.5,10.61,6.74,2.01,1.25,3.6,2.36,5.44,3.56,2.81,1.82,5.62,4.27,5.99.76.12-1.1.07-.76-.21-1.92l-8.29-27.77c-3.01-10.48-6.57-21.08-9.24-31.32-6.77-.19-9.88-2.43-12.89-6.35-2.7-.28-52.68,10.16-55.43,11.35ZM108.07,124.01l-.98,5.02,61.41,48.21c3.03-1.54,2.76-2.75,7.42-3.71l-1.96-58.41c-3.91-.82-4.23-2.21-6.74-4.6l-59.15,13.49ZM179.29,115.59l2,57.17c1,.56,6.13,2.75,7.29,3.13l28.06-29.51c5.63-5.08,9.18-9.63,14.15-14.76,6.36-6.57,9.56-9.35,13.97-14.75l-1.61-4.5-57.3-3.67c-2.34,3.43-1.43,2.95-4.7,5.38l-1.86,1.51ZM210.95,265.33c2.4,2.65,1.57,2.89,3.15,5.92l52,10.85c.84-1.2,1.24-2.17,2.06-3.27,1.44-1.95,1.59-1.49,2.51-3.31-3.31-11.53-8.19-23.22-11.93-34.98l-10.43-30.67c-1.07-2.62-.92-2.24-4.01-2.28l-33.34,57.73ZM106.26,401.96l15.35-11.47c4.84-3.98,10.09-8.01,15.21-11.74l22.73-17.74c2.16-1.66,5.59-4.6,7.76-5.67-1.25-8.97-.91-6.54,1.88-13.65l-16.97-25.45c-2.04-2.83-4.14-5.7-5.6-8.48l-4.45.07-35.9,94.13ZM0,259.18c.08,4.15,11.14,50.04,12.5,52.17,1.44.97,2.42.68,4.41,1.47,1.57.62,2.86,1.53,3.86,2.25,7.33-3.82,43.07-26.62,47.63-28.44l-.98-7.7-59.41-20.82c-6.36-2.31-3.43-1.55-8,1.07ZM312.31,212.67c5.8,2.32,8.42,7.33,8.17,15.63,7.72,1.59,30.58,9.49,41.24,12.66,3.35,1,11.35,4.5,13.66,3.09,1.98-2.95-2.21-6.79-3.63-9.26-1.72-3.01-3.49-5.8-5.35-8.76l-27.81-44.21c-.98-1.62-1.88-2.97-2.64-4.35-1.1-2-1.63-3.2-3.03-4.79l-3.79.36c-2.25,3.76-16.2,35.63-16.84,39.62ZM314.17,237.61c1.06,3.19,28.92,48.02,33.77,56.3,2.7,4.62.91,2.78,8.99,4.97,2.06-6.33,16.15-29.88,20.02-38.76-2.15-4.16-3.51-3.6-3.87-9.96l-54.84-17.21-4.06,4.67ZM79.22,267.03l3.47-.19c2.9-10.46,4.78-20.85,7.49-31.12,1.37-5.16,2.41-10.49,3.66-15.6,1.07-4.35.03-2.98-1.53-6.53-1.56-3.54-.58-5.2-.17-8.84-4.15-2.12-47.71-26.99-48.94-26.74-3.05.63-.6,3.83,1.59,8.61,1.36,2.97,2.61,6.09,3.87,9.05l22.67,53.7c1.38,3.41,6.33,15.71,7.89,17.67ZM88.09,267.82c4.07,4.18,7.31,3.3,8.39,14.69l30.01,8.05c3.99,1.14,6.43,2.8,9.51.02.04-1.51-30.99-68.47-33.03-70.85l-3.21-.08c-1.14,2.05-11.31,44.23-11.68,48.17ZM23.97,319.84l.13,5.74,39.38,16.44c6.97,2.88,2.38,1.14,12.35-3.01l2.63-43.57-6.59-3.72c-2.84-.78-17.83,9.64-20.84,11.49-5.07,3.11-23.96,14.06-27.06,16.63ZM45.71,164.24c.88,11.58-1.66,7.51,13.3,15.93l25.44,14.35c20.36,11.71,11.12,1.61,21.54,6.12,3.39,1.47,3.9.66,7.96-.15,5.84-1.17,11.31-2.48,16.92-3.62l33.13-7.04c.66-.98.32-.29.7-1.7.07-.27.36-1.98.39-2.26.22-1.79.39-2.11.17-4.12-5.37-4.29-9.77-7.69-15.1-11.86-5.02-3.92-10.11-8.14-15.5-12.12l-31.05-24.25c-12.97,4.23-5.92,2.23-15.41-.15l-31.59,23.2c-3.41,2.44-7.4,5.92-10.91,7.67Z"/>
  </g>
</svg>